<svg xmlns="http://www.w3.org/2000/svg" viewBox="0 0 512 512">
  <rect width="512" height="512" rx="100" fill="#2C2418"/>

  <!-- Steam -->
  <path d="M175,118 C160,86 180,58 165,26" stroke="#C47A5A" stroke-width="14" fill="none" stroke-linecap="round" opacity="0.85"/>
  <path d="M256,112 C241,78 261,50 246,16" stroke="#C47A5A" stroke-width="14" fill="none" stroke-linecap="round" opacity="0.75"/>
  <path d="M337,118 C352,86 332,58 347,26" stroke="#C47A5A" stroke-width="14" fill="none" stroke-linecap="round" opacity="0.85"/>

  <!-- Lid knob -->
  <circle cx="256" cy="148" r="24" stroke="#C47A5A" stroke-width="14" fill="none"/>

  <!-- Lid dome -->
  <path d="M88,204 C88,158 424,158 424,204" stroke="#C47A5A" stroke-width="17" fill="none" stroke-linecap="round"/>

  <!-- Rim -->
  <ellipse cx="256" cy="204" rx="168" ry="24" stroke="#6A9E82" stroke-width="17" fill="none"/>

  <!-- Body -->
  <path d="M96,204 C72,220 56,302 56,350 C56,392 148,420 256,420 C364,420 456,392 456,350 C456,302 440,220 416,204" stroke="#6A9E82" stroke-width="18" fill="none" stroke-linecap="round"/>

  <!-- Handles -->
  <path d="M96,252 C38,252 38,352 96,352" stroke="#C47A5A" stroke-width="20" fill="none" stroke-linecap="round"/>
  <path d="M416,252 C474,252 474,352 416,352" stroke="#C47A5A" stroke-width="20" fill="none" stroke-linecap="round"/>

  <!-- Bubbles -->
  <circle cx="186" cy="342" r="20" stroke="#6A9E82" stroke-width="11" fill="none" opacity="0.7"/>
  <circle cx="300" cy="308" r="26" stroke="#6A9E82" stroke-width="11" fill="none" opacity="0.6"/>
  <circle cx="242" cy="388" r="14" stroke="#6A9E82" stroke-width="11" fill="none" opacity="0.5"/>

  <!-- Legs -->
  <rect x="136" y="416" width="46" height="62" rx="23" stroke="#6A9E82" stroke-width="13" fill="none"/>
  <rect x="233" y="422" width="46" height="52" rx="23" stroke="#6A9E82" stroke-width="13" fill="none"/>
  <rect x="330" y="416" width="46" height="62" rx="23" stroke="#6A9E82" stroke-width="13" fill="none"/>
</svg>
